<?xml version="1.0" encoding="UTF-8"?>
<!DOCTYPE svg PUBLIC "-//W3C//DTD SVG 1.1//EN" "http://www.w3.org/Graphics/SVG/1.1/DTD/svg11.dtd">
<!-- Creator: CorelDRAW X8 -->
<svg xmlns="http://www.w3.org/2000/svg" xml:space="preserve" width="12.7mm" height="12.7mm" version="1.1" style="shape-rendering:geometricPrecision; text-rendering:geometricPrecision; image-rendering:optimizeQuality; fill-rule:evenodd; clip-rule:evenodd"
viewBox="0 0 1270 1270"
 xmlns:xlink="http://www.w3.org/1999/xlink">
 <defs>
  <style type="text/css">
   <![CDATA[
    .fil0 {fill:#FEFEFE}
   ]]>
  </style>
 </defs>
 <g id="Слой_x0020_1">
  <metadata id="CorelCorpID_0Corel-Layer"/>
  <path class="fil0" d="M397 200c-45,0 -331,-4 -344,2 -7,4 -4,3 -8,7 -7,12 -2,724 -3,815 0,21 -5,40 9,52 14,8 1010,4 1146,4 42,0 39,-5 39,-46l0 -798c0,-46 -16,-36 -59,-36 -89,0 -215,3 -296,-1l0 -63c-3,-6 -42,-28 -42,21 0,14 0,29 0,43l-179 0 -1 -68c-52,-22 -41,27 -41,68l-179 0 -1 -68c-52,-21 -41,26 -41,68zm263 849l246 0 0 -173 -246 1 0 172zm-576 0l19 0 214 0 14 -1 -1 -170 -16 -2 -203 0 -27 0 0 173zm288 -1l13 1 211 0 22 0 0 -141 0 -32 -246 1 0 171zm576 -14l0 15 246 0 0 -172 -14 -1 -232 0 0 158zm-864 -409l246 2 0 -186 -245 -1 -1 185zm288 1l246 1 0 -186 -245 -1 -1 186zm288 1l246 0 0 -187 -245 0 -1 187zm288 0l246 0 0 -187 -245 0 -1 187zm-576 218l245 0 1 -186 -245 -1 -1 187zm-287 0l244 0 1 -187 -245 0 0 187zm575 0l246 0 0 -187 -245 0 -1 187zm288 0l246 0 0 -187 -245 0 -1 187zm-864 -437l1110 1 0 -178 -313 0 -1 67c-15,6 -26,6 -38,-3l-3 -64 -177 0 -3 67c-56,23 -37,-35 -42,-67l-176 0 -3 66c-55,25 -37,-30 -42,-65l-311 -1 -1 177z"/>
 </g>
</svg>
