<?xml version="1.0" encoding="UTF-8"?>
<!DOCTYPE svg PUBLIC "-//W3C//DTD SVG 1.1//EN" "http://www.w3.org/Graphics/SVG/1.1/DTD/svg11.dtd">
<!-- Creator: CorelDRAW X8 -->
<svg xmlns="http://www.w3.org/2000/svg" xml:space="preserve" width="12.7mm" height="12.7mm" version="1.1" style="shape-rendering:geometricPrecision; text-rendering:geometricPrecision; image-rendering:optimizeQuality; fill-rule:evenodd; clip-rule:evenodd"
viewBox="0 0 1270 1270"
 xmlns:xlink="http://www.w3.org/1999/xlink">
 <defs>
  <style type="text/css">
   <![CDATA[
    .fil0 {fill:#FEFEFE}
   ]]>
  </style>
 </defs>
 <g id="Слой_x0020_1">
  <metadata id="CorelCorpID_0Corel-Layer"/>
  <g id="_2135072591408">
   <path class="fil0" d="M611 932l0 84 -197 0c-25,0 -40,2 -36,30 19,14 29,9 54,9l394 0c26,0 39,5 58,-9 5,-40 -37,-30 -100,-30 -44,0 -89,0 -134,0l0 -84c155,0 310,0 465,0 23,0 96,6 107,-7 9,-11 4,-319 4,-347l0 -289c1,-56 4,-45 -129,-45 -98,0 -1026,-3 -1044,0 -26,5 -18,56 -18,100 0,53 -3,565 3,578 7,14 26,10 45,10l528 0zm-537 -39l1112 0 2 -610 -1114 0 0 610z"/>
   <path class="fil0" d="M513 820c14,-4 134,-98 155,-115 108,-84 -15,-92 77,-178 23,-22 47,-38 76,-57 39,-24 113,-50 99,-96 -5,-16 -20,-32 -35,-35 -34,-8 -69,37 -81,51l-68 64c-20,15 -58,44 -93,43 -29,-1 -50,-43 -101,-16l-152 115c-32,25 -38,19 -12,52 21,26 124,165 135,172zm132 -302l46 59c17,-24 4,-23 42,-61 85,-83 196,-101 166,-146 -29,-44 -76,27 -90,40 -55,53 -80,84 -153,103l-11 5zm-99 -21c3,10 122,168 133,176 39,-32 10,-68 -6,-89l-58 -77c-17,-19 -43,-19 -69,-10zm-43 36c8,13 22,28 32,42 13,15 22,28 34,44l68 87c12,-7 16,-13 28,-18 -8,-16 -23,-32 -34,-47l-102 -130c-9,5 -18,13 -26,22zm-80 61c27,23 9,28 19,56 15,37 112,-6 121,113l59 -46c-7,-12 -23,-31 -33,-43 -19,-24 -92,-124 -103,-131l-63 51zm-41 30c9,14 20,27 32,42l102 132c56,-26 24,-101 -31,-110 -32,-6 -55,-10 -61,-41 -8,-44 -5,-55 -42,-23z"/>
   <path class="fil0" d="M378 708c-12,4 -26,30 -33,42 -11,20 -3,47 16,50 53,11 38,-74 17,-92z"/>
   <path class="fil0" d="M841 416c36,9 67,-20 43,-43 -23,-22 -56,14 -43,43z"/>
  </g>
 </g>
</svg>
