<?xml version="1.0" encoding="UTF-8"?>
<!DOCTYPE svg PUBLIC "-//W3C//DTD SVG 1.1//EN" "http://www.w3.org/Graphics/SVG/1.1/DTD/svg11.dtd">
<!-- Creator: CorelDRAW X8 -->
<svg xmlns="http://www.w3.org/2000/svg" xml:space="preserve" width="12.7mm" height="12.7mm" version="1.1" style="shape-rendering:geometricPrecision; text-rendering:geometricPrecision; image-rendering:optimizeQuality; fill-rule:evenodd; clip-rule:evenodd"
viewBox="0 0 1270 1270"
 xmlns:xlink="http://www.w3.org/1999/xlink">
 <defs>
  <style type="text/css">
   <![CDATA[
    .fil0 {fill:#FEFEFE}
   ]]>
  </style>
 </defs>
 <g id="Слой_x0020_1">
  <metadata id="CorelCorpID_0Corel-Layer"/>
  <g id="_2135077150128">
   <path class="fil0" d="M219 48l-4 36c-85,52 -1,91 1,99l0 43c-17,10 -38,19 -38,47 0,27 19,39 38,48l0 47c-53,25 -47,72 0,95l0 46c-49,27 -54,67 0,96l0 47c-44,19 -58,63 0,95l0 45c-17,14 -37,20 -38,48 -1,27 20,39 37,48l1 47c-49,25 -55,64 0,96l0 42c-6,15 -39,16 -38,53 1,16 6,22 15,30 13,13 25,13 23,24 -8,15 -54,24 -25,57 30,3 25,-14 47,-20 14,-4 49,-2 65,-2l731 0c66,0 51,10 51,-148l0 -994c0,-31 -7,-32 -36,-32l-761 0c-25,0 -53,-3 -69,7zm36 59l0 86c18,-15 42,-13 37,16 -3,22 -19,33 -37,40l0 86c26,-35 70,25 0,56l0 86c6,-5 13,-13 26,-9 17,6 23,43 -25,65l-1 86c27,-30 58,12 20,44 -22,19 -20,-4 -20,58l0 39c7,-4 15,-13 28,-7 8,4 12,13 9,25 -5,27 -30,30 -37,44l0 80c34,-34 63,32 0,57l0 85c48,-27 48,26 15,49 -19,13 -15,0 -15,58 12,-10 18,-12 34,-5 4,11 4,17 2,30l754 0 0 -1095c-133,-5 -274,-1 -408,-1l-307 0c-75,0 -32,11 -75,27z"/>
   <path class="fil0" d="M364 1044c-22,7 -25,38 14,38 89,1 572,2 582,-2 17,-6 22,-37 -17,-37 -92,0 -565,-3 -579,1z"/>
   <path class="fil0" d="M353 936c-15,48 31,35 121,35l331 0c27,0 149,8 162,-6 7,-8 6,-22 0,-28 -10,-9 -104,-5 -120,-5 -82,0 -468,-4 -494,4z"/>
   <path class="fil0" d="M358 603c-6,4 -5,0 -8,10 -7,24 20,25 34,25 91,-1 567,3 578,-3 9,-4 13,-15 8,-26 -9,-17 -86,-10 -117,-10 -72,0 -482,-5 -495,4z"/>
   <path class="fil0" d="M361 823c-9,5 -15,14 -10,26 8,18 79,11 114,11 71,0 485,2 496,-2 13,-6 24,-37 -21,-37 -89,0 -570,-3 -579,2z"/>
   <path class="fil0" d="M360 712c-9,5 -14,15 -9,26 5,12 15,11 30,11 91,-1 570,2 580,-2 11,-4 26,-37 -21,-37 -90,0 -571,-3 -580,2z"/>
   <path class="fil0" d="M360 268c-13,7 -24,37 21,37 90,0 570,2 580,-2 11,-5 26,-38 -21,-38 -89,1 -571,-2 -580,3z"/>
   <path class="fil0" d="M946 488l-570 0c-37,0 -37,38 -1,39 74,3 205,0 284,0l284 0c40,-1 39,-39 3,-39z"/>
   <path class="fil0" d="M387 416l559 0c32,0 41,-39 -3,-39l-478 0c-54,0 -126,-13 -115,25 4,16 22,14 37,14z"/>
   <path class="fil0" d="M376 194l570 -1c38,0 33,-38 0,-38l-567 0c-41,-1 -41,39 -3,39z"/>
  </g>
 </g>
</svg>
