<?xml version="1.0" encoding="UTF-8"?>
<!DOCTYPE svg PUBLIC "-//W3C//DTD SVG 1.1//EN" "http://www.w3.org/Graphics/SVG/1.1/DTD/svg11.dtd">
<!-- Creator: CorelDRAW X8 -->
<svg xmlns="http://www.w3.org/2000/svg" xml:space="preserve" width="250mm" height="250mm" version="1.1" style="shape-rendering:geometricPrecision; text-rendering:geometricPrecision; image-rendering:optimizeQuality; fill-rule:evenodd; clip-rule:evenodd"
viewBox="0 0 25000 25000"
 xmlns:xlink="http://www.w3.org/1999/xlink">
 <defs>
  <style type="text/css">
   <![CDATA[
    .str5 {stroke:#00A0E3;stroke-width:100}
    .str0 {stroke:#009846;stroke-width:100}
    .str7 {stroke:#FF7800;stroke-width:100}
    .str4 {stroke:#D9DADA;stroke-width:20}
    .str3 {stroke:#C5C6C6;stroke-width:20}
    .str2 {stroke:#9D9E9E;stroke-width:20}
    .str6 {stroke:#00A0E3;stroke-width:7.62}
    .str1 {stroke:#009846;stroke-width:7.62}
    .fil0 {fill:#FEFEFE}
    .fil4 {fill:#D9DADA}
    .fil3 {fill:#C5C6C6}
    .fil2 {fill:#9D9E9E}
    .fil5 {fill:#00A0E3}
    .fil1 {fill:#009846}
    .fil6 {fill:#FF7800}
   ]]>
  </style>
 </defs>
 <g id="Слой_x0020_1">
  <metadata id="CorelCorpID_0Corel-Layer"/>
  <g id="_2216188660064">
   <rect class="fil0 str0" x="1051" y="5895" width="11445" height="16153"/>
   <rect class="fil1 str1" x="1051" y="5895" width="11445" height="787"/>
   <rect class="fil1 str1" x="1051" y="9845" width="11445" height="3322"/>
   <rect class="fil1 str1" x="1051" y="20670" width="11445" height="1378"/>
   <rect class="fil2 str2" x="4168" y="7139" width="5195" height="1196"/>
   <rect class="fil3 str3" x="3215" y="8635" width="7100" height="598"/>
   <rect class="fil4 str4" x="1791" y="16727" width="2802" height="504"/>
   <rect class="fil4 str4" x="1791" y="17482" width="2802" height="504"/>
   <rect class="fil4 str4" x="1791" y="18238" width="2802" height="504"/>
   <rect class="fil4 str4" x="2798" y="18994" width="1795" height="504"/>
   <rect class="fil4 str4" x="5359" y="16727" width="2802" height="504"/>
   <rect class="fil4 str4" x="5359" y="17482" width="2802" height="504"/>
   <rect class="fil4 str4" x="5359" y="18238" width="2802" height="504"/>
   <rect class="fil4 str4" x="6366" y="18994" width="1795" height="504"/>
   <rect class="fil4 str4" x="8917" y="16727" width="2802" height="504"/>
   <rect class="fil4 str4" x="8917" y="17482" width="2802" height="504"/>
   <rect class="fil4 str4" x="8917" y="18238" width="2802" height="504"/>
   <rect class="fil4 str4" x="9924" y="18994" width="1795" height="504"/>
   <circle class="fil2 str2" cx="3176" cy="15026" r="1322"/>
   <circle class="fil2 str2" cx="6766" cy="15058" r="1322"/>
   <circle class="fil2 str2" cx="10324" cy="15026" r="1322"/>
  </g>
  <g id="_2179870908304">
   <rect class="fil0 str5" x="12496" y="6955" width="11445" height="16153"/>
   <rect class="fil5 str6" x="12496" y="6955" width="11445" height="787"/>
   <rect class="fil5 str6" x="12496" y="10905" width="11445" height="3322"/>
   <rect class="fil5 str6" x="12496" y="21730" width="11445" height="1378"/>
   <rect class="fil2 str2" x="15613" y="8199" width="5195" height="1196"/>
   <rect class="fil3 str3" x="14661" y="9695" width="7100" height="598"/>
   <rect class="fil4 str4" x="13236" y="17787" width="2802" height="504"/>
   <rect class="fil4 str4" x="13236" y="18542" width="2802" height="504"/>
   <rect class="fil4 str4" x="13236" y="19298" width="2802" height="504"/>
   <rect class="fil4 str4" x="14244" y="20054" width="1795" height="504"/>
   <rect class="fil4 str4" x="16804" y="17787" width="2802" height="504"/>
   <rect class="fil4 str4" x="16804" y="18542" width="2802" height="504"/>
   <rect class="fil4 str4" x="16804" y="19298" width="2802" height="504"/>
   <rect class="fil4 str4" x="17811" y="20054" width="1795" height="504"/>
   <rect class="fil4 str4" x="20362" y="17787" width="2802" height="504"/>
   <rect class="fil4 str4" x="20362" y="18542" width="2802" height="504"/>
   <rect class="fil4 str4" x="20362" y="19298" width="2802" height="504"/>
   <rect class="fil4 str4" x="21369" y="20054" width="1795" height="504"/>
   <circle class="fil2 str2" cx="14621" cy="16086" r="1322"/>
   <circle class="fil2 str2" cx="18211" cy="16118" r="1322"/>
   <circle class="fil2 str2" cx="21769" cy="16086" r="1322"/>
  </g>
  <g id="_2216189986720">
   <rect class="fil0 str7" x="4169" y="763" width="16653" height="23502"/>
   <rect class="fil6" x="4169" y="763" width="16653" height="1145"/>
   <rect class="fil6" x="4169" y="6509" width="16653" height="4833"/>
   <rect class="fil6" x="4169" y="22260" width="16653" height="2004"/>
   <rect class="fil2 str2" x="8705" y="2572" width="7559" height="1741"/>
   <rect class="fil3 str3" x="7319" y="4748" width="10331" height="870"/>
   <rect class="fil4 str4" x="5246" y="16522" width="4077" height="733"/>
   <rect class="fil4 str4" x="5246" y="17622" width="4077" height="733"/>
   <rect class="fil4 str4" x="5246" y="18721" width="4077" height="733"/>
   <rect class="fil4 str4" x="6712" y="19821" width="2611" height="733"/>
   <rect class="fil4 str4" x="10438" y="16522" width="4077" height="733"/>
   <rect class="fil4 str4" x="10438" y="17622" width="4077" height="733"/>
   <rect class="fil4 str4" x="10438" y="18721" width="4077" height="733"/>
   <rect class="fil4 str4" x="11904" y="19821" width="2611" height="733"/>
   <rect class="fil4 str4" x="15615" y="16522" width="4077" height="733"/>
   <rect class="fil4 str4" x="15615" y="17622" width="4077" height="733"/>
   <rect class="fil4 str4" x="15615" y="18721" width="4077" height="733"/>
   <rect class="fil4 str4" x="17081" y="19821" width="2611" height="733"/>
   <circle class="fil2 str2" cx="7262" cy="14048" r="1924"/>
   <circle class="fil2 str2" cx="12485" cy="14094" r="1924"/>
   <circle class="fil2 str2" cx="17662" cy="14048" r="1924"/>
  </g>
 </g>
</svg>
