<?xml version="1.0" encoding="UTF-8"?>
<!DOCTYPE svg PUBLIC "-//W3C//DTD SVG 1.1//EN" "http://www.w3.org/Graphics/SVG/1.1/DTD/svg11.dtd">
<!-- Creator: CorelDRAW X8 -->
<svg xmlns="http://www.w3.org/2000/svg" xml:space="preserve" width="120mm" height="60mm" version="1.1" style="shape-rendering:geometricPrecision; text-rendering:geometricPrecision; image-rendering:optimizeQuality; fill-rule:evenodd; clip-rule:evenodd"
viewBox="0 0 12000 6000"
 xmlns:xlink="http://www.w3.org/1999/xlink">
 <defs>
  <style type="text/css">
   <![CDATA[
    .fil0 {fill:#FF7800}
    .fil1 {fill:black;fill-rule:nonzero}
   ]]>
  </style>
 </defs>
 <g id="Слой_x0020_1">
  <metadata id="CorelCorpID_0Corel-Layer"/>
  <path class="fil0" d="M4193 1209c301,218 1025,554 1457,808 198,88 681,377 805,583 113,186 207,459 231,681 40,373 44,542 -2,1085 -28,265 -156,1152 -158,1422 189,-419 508,-1243 578,-1490l553 -1946c128,-549 730,-1335 900,-1819 -126,126 -100,99 -170,179 -1178,1346 -1556,1273 -3606,675 -197,-57 -391,-140 -588,-178z"/>
  <path class="fil0" d="M6803 272c339,0 614,275 614,614 0,339 -275,614 -614,614 -339,0 -614,-275 -614,-614 0,-339 275,-614 614,-614z"/>
  <path class="fil1" d="M721 4981c0,-25 7,-50 19,-75 13,-25 31,-52 53,-79 22,-27 48,-56 77,-86 30,-30 61,-61 93,-95 61,-62 125,-126 192,-193 67,-68 131,-137 192,-208 26,-31 47,-56 62,-76 16,-20 28,-36 35,-49 8,-13 13,-24 16,-33 2,-10 4,-19 5,-28 -43,-56 -82,-117 -115,-182 -34,-65 -64,-132 -90,-203 -27,-71 -50,-143 -72,-215 -21,-72 -41,-143 -59,-212 -18,-63 -35,-127 -51,-191 -15,-64 -37,-120 -63,-166 -19,-35 -36,-72 -50,-109 -14,-38 -20,-79 -20,-125 0,-20 2,-43 6,-69 5,-26 13,-51 25,-74 12,-23 27,-42 46,-58 20,-16 43,-24 71,-24 30,0 58,10 84,31 26,21 49,47 70,78 20,32 38,66 52,103 15,36 26,70 34,101 10,45 23,100 39,166 14,66 29,134 45,203 14,70 29,135 43,197 15,62 28,112 39,149 14,46 28,90 43,131 16,41 32,76 47,105 16,30 31,53 46,70 15,17 29,26 42,26 11,0 27,-14 49,-42 84,-113 173,-234 264,-362 91,-129 181,-256 267,-382 32,-47 61,-90 86,-129 24,-40 47,-77 67,-113 20,-35 38,-69 55,-103 17,-34 32,-67 46,-102l41 -163c4,-16 11,-33 21,-50 10,-17 21,-32 34,-47 13,-13 28,-25 45,-34 17,-9 36,-13 56,-13 27,0 50,6 70,17 20,10 36,25 48,42 13,18 22,38 28,61 7,24 9,47 9,72 0,28 -5,61 -16,97 -11,36 -25,73 -42,111 -18,38 -38,76 -59,114 -22,37 -43,70 -64,100 -148,211 -298,424 -450,641 -153,217 -307,424 -465,623 -139,176 -276,340 -410,491 -134,151 -256,283 -366,396 -24,23 -51,46 -81,66 -30,21 -61,31 -95,31 -17,0 -32,-4 -44,-12 -12,-7 -21,-17 -28,-30 -8,-12 -13,-26 -17,-42 -3,-17 -5,-32 -5,-48zm2033 -831c15,-63 39,-130 72,-200 32,-71 75,-142 127,-215 53,-72 117,-143 190,-213 74,-69 160,-134 257,-193 68,-39 265,-115 333,-115 81,0 149,20 204,61 55,41 101,96 138,167 11,23 21,45 31,67 10,21 18,45 25,68 6,25 12,51 16,79 4,28 6,59 6,94 0,82 -12,165 -38,250 -26,85 -63,167 -110,248 -48,81 -106,158 -173,232 -68,74 -143,140 -226,199 -56,40 -117,71 -185,94 -68,22 -143,33 -227,33 -80,0 -149,-11 -207,-32 -59,-21 -107,-51 -146,-90 -39,-39 -68,-86 -87,-141 -19,-55 -28,-116 -28,-184 0,-65 9,-134 28,-209zm257 21c-6,23 -11,46 -13,67 -3,21 -4,42 -4,61 0,34 4,66 13,95 9,30 23,55 43,77 19,21 44,37 73,49 30,12 66,18 108,18 78,0 152,-20 219,-60 68,-40 128,-89 181,-149 52,-60 97,-125 132,-193 36,-69 61,-132 76,-190 9,-36 17,-71 24,-103 6,-32 10,-61 10,-88 0,-27 -3,-71 -7,-96 -10,-51 -34,-88 -74,-112 -70,-42 -202,-14 -273,27 -32,18 -90,55 -126,78 -35,24 -69,52 -102,85 -34,31 -66,66 -96,103 -31,37 -58,75 -83,114 -24,39 -45,77 -63,114 -19,37 -31,71 -38,103zm1676 -806c4,-17 10,-32 18,-43 7,-12 16,-22 25,-29 8,-7 16,-13 23,-15 8,-3 13,-5 17,-5 12,0 25,1 41,4 15,2 30,5 45,7 16,3 32,6 48,9 27,1 46,12 58,32 12,21 18,46 18,75 0,23 -3,44 -10,64 -35,129 -67,241 -95,337 -29,95 -54,177 -74,244 -21,67 -36,122 -47,164 -11,42 -16,75 -16,96 0,22 3,46 9,73 5,27 14,52 25,76 12,23 26,42 43,58 18,15 39,23 64,23 43,0 87,-14 132,-41 44,-26 86,-59 127,-98 40,-39 77,-80 109,-124 33,-44 59,-83 80,-117l40 -70c25,-43 48,-93 70,-149 21,-57 39,-113 55,-170 16,-57 30,-110 41,-161 12,-50 21,-90 26,-120l41 -206c8,-39 21,-66 38,-81 17,-15 46,-23 86,-23 26,0 49,3 70,9 20,5 38,15 52,30 15,15 26,34 33,58 7,24 11,56 11,94 0,44 -7,99 -21,164 -14,64 -29,129 -46,194 -9,39 -19,79 -29,122 -9,42 -18,85 -26,128 -8,43 -14,84 -19,123 -4,39 -7,74 -7,105 0,52 3,105 6,157 3,53 6,109 6,168 0,27 -2,50 -3,72 -2,20 -4,36 -7,46 -11,40 -26,70 -44,90 -18,20 -49,29 -92,29 -30,0 -54,-3 -72,-10 -17,-7 -31,-16 -41,-27 -10,-11 -16,-24 -19,-38 -3,-14 -6,-28 -6,-43l-18 -292 -13 4c-35,44 -72,92 -112,146 -40,53 -85,104 -133,150 -49,47 -102,86 -159,117 -58,32 -120,48 -187,48 -14,0 -31,-4 -52,-10 -21,-7 -43,-16 -66,-26 -23,-10 -44,-22 -65,-35 -21,-13 -37,-25 -50,-37 -56,-52 -97,-111 -120,-177 -24,-67 -36,-134 -36,-202 0,-39 3,-77 9,-115 7,-38 13,-75 22,-111 8,-36 17,-69 27,-101 10,-31 18,-59 24,-84 20,-78 37,-146 53,-205 15,-59 29,-110 41,-155 12,-44 22,-82 30,-114 9,-31 15,-59 22,-82z"/>
  <path class="fil1" d="M8375 4678c0,-30 4,-66 11,-108 7,-42 11,-94 11,-156 -34,25 -72,55 -113,89 -42,34 -85,67 -129,98 -45,30 -88,56 -132,78 -44,21 -86,31 -124,31 -31,0 -61,-4 -88,-13 -28,-9 -52,-22 -71,-38 -56,-43 -95,-86 -119,-130 -24,-43 -37,-94 -37,-152 0,-26 3,-53 7,-81 5,-27 12,-59 22,-95 39,-164 106,-315 202,-454 95,-139 214,-258 355,-356 55,-38 110,-62 165,-74 54,-10 109,-16 162,-16 24,0 51,2 80,5 30,3 56,6 80,9 24,-5 43,-9 58,-11 15,-2 31,-3 47,-3 32,0 58,4 78,13 21,8 37,19 50,33 12,14 21,30 27,48 6,18 8,37 8,57 0,26 -4,52 -12,77 -8,24 -17,48 -25,73l-204 817c-5,45 -8,85 -11,122 -3,37 -10,72 -19,104 -3,10 -7,21 -12,35 -4,14 -11,28 -22,41 -11,13 -23,24 -39,33 -15,9 -36,14 -60,14 -32,0 -58,-2 -77,-6 -19,-5 -34,-10 -44,-18 -11,-8 -17,-17 -20,-28 -3,-11 -5,-24 -5,-38zm-515 -468c-4,14 -8,35 -13,62 -4,27 -7,54 -7,81 0,27 4,52 13,75 8,22 26,33 54,33 43,0 84,-10 121,-29 39,-19 73,-42 107,-69 44,-36 89,-77 135,-122 46,-45 90,-92 130,-141 42,-50 78,-101 109,-153 32,-52 55,-104 69,-156 8,-30 16,-64 21,-104 6,-39 9,-74 9,-105 0,-14 -3,-27 -10,-40 -6,-12 -18,-19 -35,-19 -51,0 -102,10 -153,29 -51,20 -101,46 -148,79 -48,34 -93,73 -136,118 -43,45 -82,92 -117,144 -35,51 -65,103 -91,158 -25,54 -44,107 -58,159zm1761 -1476c3,-35 8,-74 13,-115 5,-41 13,-79 25,-114 11,-36 26,-65 45,-88 19,-23 44,-35 74,-35 17,0 35,3 55,9 20,6 39,15 58,26 18,11 33,24 45,40 13,15 19,32 19,50 0,9 -2,18 -5,29 -3,11 -5,22 -8,32l-387 1553c-16,62 -28,121 -39,178 -10,56 -18,103 -23,139l0 37c0,31 -2,65 -6,101 -4,37 -12,71 -23,103 -12,31 -28,58 -48,79 -20,21 -46,32 -78,32 -28,0 -52,-6 -73,-18 -21,-12 -38,-27 -51,-46 -14,-18 -24,-38 -30,-60 -6,-21 -9,-41 -9,-59 0,-17 2,-37 4,-61 4,-25 8,-50 12,-77 5,-26 10,-52 15,-78 5,-27 10,-50 16,-70l399 -1587zm318 1412c0,-44 12,-82 36,-113 24,-31 55,-51 94,-62 12,-23 30,-53 53,-92 24,-39 54,-81 89,-127 35,-45 75,-91 120,-137 45,-46 95,-87 149,-126 54,-37 112,-68 175,-92 62,-23 129,-35 199,-35 60,0 112,7 157,22 44,14 81,34 110,60 28,26 50,57 65,92 14,36 22,74 22,116 0,35 -5,68 -15,100 -14,58 -41,109 -80,152 -39,44 -86,82 -139,114 -53,33 -111,60 -173,82 -63,21 -126,39 -188,54 -63,14 -123,26 -181,33 -58,8 -107,14 -150,18 -9,19 -17,42 -24,71 -7,28 -10,56 -10,83 0,60 24,106 71,139 48,33 113,50 197,50 49,0 95,-5 140,-17 44,-10 86,-24 126,-41 40,-17 77,-36 112,-56 35,-20 68,-40 97,-60 37,-25 72,-46 106,-63 33,-17 63,-25 89,-25 26,0 42,6 49,19 8,13 11,27 11,41 0,9 0,17 -1,24 0,8 -1,14 -2,20 -5,27 -15,54 -31,80 -15,27 -35,50 -59,70 -107,85 -217,145 -331,181 -113,36 -233,55 -362,55 -24,0 -53,-2 -87,-5 -34,-3 -69,-9 -105,-18 -36,-10 -72,-23 -107,-41 -35,-18 -66,-41 -94,-69 -27,-30 -49,-65 -66,-108 -17,-42 -26,-93 -26,-153 0,-49 7,-103 20,-163 -13,-2 -26,-9 -38,-21 -12,-12 -18,-29 -18,-52zm971 -429c2,-5 3,-10 3,-14 0,-5 0,-9 0,-14 0,-28 -10,-49 -31,-63 -21,-14 -45,-21 -74,-21 -46,0 -91,12 -135,36 -44,24 -85,53 -124,89 -38,36 -73,74 -103,115 -29,40 -53,77 -70,111 75,-7 143,-17 205,-30 62,-15 116,-32 162,-53 46,-22 83,-45 112,-72 28,-26 47,-54 55,-84z"/>
 </g>
</svg>
